<?xml version="1.0" encoding="UTF-8" standalone="no"?>
<!-- Created with Inkscape (http://www.inkscape.org/) -->

<svg
   width="52"
   height="52"
   viewBox="0 0 13.758334 13.758333"
   version="1.1"
   id="svg1"
   xml:space="preserve"
   inkscape:version="1.3.2 (091e20e, 2023-11-25)"
   sodipodi:docname="block-icon.svg"
   inkscape:export-filename="block-icon.png"
   inkscape:export-xdpi="129.23077"
   inkscape:export-ydpi="129.23077"
   xmlns:inkscape="http://www.inkscape.org/namespaces/inkscape"
   xmlns:sodipodi="http://sodipodi.sourceforge.net/DTD/sodipodi-0.dtd"
   xmlns="http://www.w3.org/2000/svg"
   xmlns:svg="http://www.w3.org/2000/svg"><sodipodi:namedview
     id="namedview1"
     pagecolor="#ffffff"
     bordercolor="#000000"
     borderopacity="0.25"
     inkscape:showpageshadow="2"
     inkscape:pageopacity="0.0"
     inkscape:pagecheckerboard="true"
     inkscape:deskcolor="#d1d1d1"
     inkscape:document-units="px"
     inkscape:zoom="7.7464162"
     inkscape:cx="29.239328"
     inkscape:cy="31.821167"
     inkscape:window-width="1816"
     inkscape:window-height="1144"
     inkscape:window-x="25"
     inkscape:window-y="43"
     inkscape:window-maximized="0"
     inkscape:current-layer="g6" /><defs
     id="defs1"><inkscape:path-effect
       effect="bspline"
       id="path-effect9"
       is_visible="true"
       lpeversion="1.3"
       weight="33.333333"
       steps="2"
       helper_size="0"
       apply_no_weight="true"
       apply_with_weight="true"
       only_selected="false"
       uniform="false" /><inkscape:path-effect
       effect="bspline"
       id="path-effect7"
       is_visible="true"
       lpeversion="1.3"
       weight="33.333333"
       steps="2"
       helper_size="0"
       apply_no_weight="true"
       apply_with_weight="true"
       only_selected="false"
       uniform="false" /><inkscape:path-effect
       effect="bspline"
       id="path-effect3"
       is_visible="true"
       lpeversion="1.3"
       weight="33.333333"
       steps="2"
       helper_size="0"
       apply_no_weight="true"
       apply_with_weight="true"
       only_selected="false"
       uniform="false" /><inkscape:path-effect
       effect="bspline"
       id="path-effect2"
       is_visible="true"
       lpeversion="1.3"
       weight="33.333333"
       steps="2"
       helper_size="0"
       apply_no_weight="true"
       apply_with_weight="true"
       only_selected="false"
       uniform="false" /><inkscape:path-effect
       effect="spiro"
       id="path-effect1"
       is_visible="true"
       lpeversion="1" /></defs><g
     inkscape:label="Layer 1"
     inkscape:groupmode="layer"
     id="layer1"
     transform="translate(-99.306099,-62.206394)"><rect
       style="fill:none;fill-opacity:1;stroke:#000000;stroke-width:0;stroke-linecap:round;stroke-linejoin:round;stroke-dasharray:none"
       id="rect3"
       width="13.758333"
       height="13.758333"
       x="99.306099"
       y="62.206394" /><g
       id="g4"
       transform="matrix(0.17333333,0,0,0.17333333,84.835702,40.6066)"
       style="fill:#ffffff;fill-opacity:1;stroke-width:9.15865413;stroke-dasharray:none;stroke:#ffffff;stroke-opacity:1"
       inkscape:label="g4"><path
         style="font-variation-settings:normal;opacity:1;fill:#ffffff;fill-opacity:1;stroke:#ffffff;stroke-width:9.15865413;stroke-linecap:round;stroke-linejoin:round;stroke-miterlimit:4;stroke-dasharray:none;stroke-dashoffset:0;stroke-opacity:1;stop-color:#000000;stop-opacity:1"
         d="m 111.01159,169.61411 c -2.692,-0.41416 -5.62865,0.26353 -7.43589,1.65662 -1.80725,1.39308 -2.48494,3.50145 -4.405131,4.04737 -1.920194,0.54592 -5.082686,-0.4706 -7.002881,0.16947 -1.920196,0.64006 -2.597872,2.93663 -1.261265,5.91106 1.336607,2.97442 4.68741,6.62642 9.054883,8.60306 4.367474,1.97664 9.751234,2.27782 13.493234,0.82826 3.74201,-1.44956 5.84183,-4.64976 6.4254,-7.90653 0.58358,-3.25678 -0.34911,-6.56987 -2.03913,-8.97953 -1.69002,-2.40965 -4.13723,-3.91563 -6.82922,-4.32978 z"
         id="path1"
         inkscape:path-effect="#path-effect2"
         inkscape:original-d="m 111.25631,168.52225 c -2.93672,0.6777 -5.87337,1.35539 -8.81014,2.03311 -0.67772,2.10845 -1.35541,4.21682 -2.03311,6.32523 -3.162683,-1.01658 -6.325176,-2.03309 -9.487853,-3.04966 -0.677715,2.2967 -1.355392,4.59327 -2.033108,6.88998 3.350932,3.65214 6.701734,7.30414 10.0526,10.95621 5.384081,0.3012 10.767841,0.60239 16.151931,0.9036 2.09991,-3.20034 4.19974,-6.40053 6.29962,-9.6008 -0.93274,-3.31328 -1.86542,-6.62637 -2.79815,-9.93965 -2.44731,-1.50603 -4.89452,-3.01201 -7.34179,-4.51802 z"
         sodipodi:nodetypes="cccccccccc" /><path
         style="fill:#ffffff;fill-opacity:1;stroke:#ffffff;stroke-width:9.15865413;stroke-linecap:round;stroke-linejoin:round;stroke-dasharray:none;stroke-opacity:1"
         d="m 144.3326,136.36651 c -0.87998,-0.11962 -2.6399,-0.35887 -5.04401,0.37175 -2.40411,0.73062 -5.45216,2.43102 -9.30945,5.82655 -3.8573,3.39554 -8.52352,8.48595 -11.57173,12.2008 -3.04821,3.71486 -4.4784,6.05415 -5.19119,8.05425 -0.71278,2.0001 -0.70812,3.66085 0.47805,4.49544 1.18616,0.83458 3.55367,0.84292 5.00796,1.77226 1.45428,0.92934 1.99517,2.77958 2.74563,4.13076 0.75047,1.35119 1.71044,2.20316 3.55279,1.39846 1.84235,-0.80469 4.56686,-3.26595 7.67733,-7.08423 3.11048,-3.81827 6.60656,-8.99309 9.08215,-13.55568 2.47559,-4.5626 3.93039,-8.51241 4.33569,-11.3255 0.40531,-2.81309 -0.23893,-4.48916 -0.56106,-5.32721 -0.32213,-0.83806 -0.32218,-0.83802 -1.20216,-0.95765 z"
         id="path2"
         inkscape:path-effect="#path-effect3"
         inkscape:original-d="m 145.21258,136.48614 c -1.75996,-0.23926 -3.51988,-0.4785 -5.27988,-0.71776 -3.04822,1.7005 -6.09627,3.40089 -9.1445,5.1014 -4.66636,5.09057 -9.33258,10.18098 -13.99881,15.2714 -1.43019,2.33929 -2.86038,4.67858 -4.29062,7.01794 0.005,1.66084 0.009,3.32159 0.014,4.98243 2.36766,0.008 4.73517,0.0167 7.10283,0.025 0.54092,1.85035 1.0818,3.70059 1.62271,5.55094 0.96002,0.85202 1.91999,1.70399 2.88002,2.55601 2.72467,-2.46141 5.44917,-4.92268 8.17385,-7.38409 3.49628,-5.17513 6.99235,-10.34995 10.48865,-15.52509 1.45489,-3.95005 2.90968,-7.89986 4.36457,-11.8499 -0.64427,-1.67614 -1.28851,-3.35221 -1.93277,-5.02832 z"
         sodipodi:nodetypes="ccccccccccccc" /><path
         id="path3"
         style="color:#000000;fill:#ffffff;fill-opacity:1;stroke:#ffffff;stroke-width:9.15865413;stroke-linecap:round;stroke-linejoin:round;stroke-dasharray:none;stroke-opacity:1"
         d="m 154.97753,174.7599 a 3.96875,3.96875 0 0 0 -5.61266,0 l -2.61303,2.61303 -2.61303,-2.61303 a 3.96875,3.96875 0 0 0 -5.61266,0 3.96875,3.96875 0 0 0 0,5.61266 l 2.61303,2.61303 -2.61303,2.61303 a 3.96875,3.96875 0 0 0 0,5.61266 3.96875,3.96875 0 0 0 5.61266,0 l 2.61303,-2.61303 2.61303,2.61303 a 3.96875,3.96875 0 0 0 5.61266,0 3.96875,3.96875 0 0 0 0,-5.61266 l -2.61303,-2.61303 2.61303,-2.61303 a 3.96875,3.96875 0 0 0 0,-5.61266 z"
         inkscape:label="path3" /></g><g
       id="g6"
       transform="matrix(0.17333333,0,0,0.17333333,84.835702,40.6066)"
       style="display:inline;fill:#7733ff;fill-opacity:1;stroke-width:3.05288;stroke-dasharray:none"
       inkscape:label="g6"><path
         style="font-variation-settings:normal;opacity:1;fill:#ffffff;fill-opacity:1;stroke:#7733ff;stroke-width:3.05288;stroke-linecap:round;stroke-linejoin:round;stroke-miterlimit:4;stroke-dasharray:none;stroke-dashoffset:0;stroke-opacity:1;stop-color:#000000;stop-opacity:1"
         d="m 111.01159,169.61411 c -2.692,-0.41416 -5.62865,0.26353 -7.43589,1.65662 -1.80725,1.39308 -2.48494,3.50145 -4.405131,4.04737 -1.920194,0.54592 -5.082686,-0.4706 -7.002881,0.16947 -1.920196,0.64006 -2.597872,2.93663 -1.261265,5.91106 1.336607,2.97442 4.68741,6.62642 9.054883,8.60306 4.367474,1.97664 9.751234,2.27782 13.493234,0.82826 3.74201,-1.44956 5.84183,-4.64976 6.4254,-7.90653 0.58358,-3.25678 -0.34911,-6.56987 -2.03913,-8.97953 -1.69002,-2.40965 -4.13723,-3.91563 -6.82922,-4.32978 z"
         id="path4"
         inkscape:path-effect="#path-effect7"
         inkscape:original-d="m 111.25631,168.52225 c -2.93672,0.6777 -5.87337,1.35539 -8.81014,2.03311 -0.67772,2.10845 -1.35541,4.21682 -2.03311,6.32523 -3.162683,-1.01658 -6.325176,-2.03309 -9.487853,-3.04966 -0.677715,2.2967 -1.355392,4.59327 -2.033108,6.88998 3.350932,3.65214 6.701734,7.30414 10.0526,10.95621 5.384081,0.3012 10.767841,0.60239 16.151931,0.9036 2.09991,-3.20034 4.19974,-6.40053 6.29962,-9.6008 -0.93274,-3.31328 -1.86542,-6.62637 -2.79815,-9.93965 -2.44731,-1.50603 -4.89452,-3.01201 -7.34179,-4.51802 z"
         sodipodi:nodetypes="cccccccccc"
         transform="matrix(0.97052543,0,0,0.96049044,2.6060913,7.6289216)" /><path
         style="fill:#ffffff;fill-opacity:1;stroke:#7733ff;stroke-width:3.05288;stroke-linecap:round;stroke-linejoin:round;stroke-dasharray:none;stroke-opacity:1"
         d="m 144.3326,136.36651 c -0.87998,-0.11962 -2.6399,-0.35887 -5.04401,0.37175 -2.40411,0.73062 -5.45216,2.43102 -9.30945,5.82655 -3.8573,3.39554 -8.52352,8.48595 -11.57173,12.2008 -3.04821,3.71486 -4.4784,6.05415 -5.19119,8.05425 -0.71278,2.0001 -0.70812,3.66085 0.47805,4.49544 1.18616,0.83458 3.55367,0.84292 5.00796,1.77226 1.45428,0.92934 1.99517,2.77958 2.74563,4.13076 0.75047,1.35119 1.71044,2.20316 3.55279,1.39846 1.84235,-0.80469 4.56686,-3.26595 7.67733,-7.08423 3.11048,-3.81827 6.60656,-8.99309 9.08215,-13.55568 2.47559,-4.5626 3.93039,-8.51241 4.33569,-11.3255 0.40531,-2.81309 -0.23893,-4.48916 -0.56106,-5.32721 -0.32213,-0.83806 -0.32218,-0.83802 -1.20216,-0.95765 z"
         id="path5"
         inkscape:path-effect="#path-effect9"
         inkscape:original-d="m 145.21258,136.48614 c -1.75996,-0.23926 -3.51988,-0.4785 -5.27988,-0.71776 -3.04822,1.7005 -6.09627,3.40089 -9.1445,5.1014 -4.66636,5.09057 -9.33258,10.18098 -13.99881,15.2714 -1.43019,2.33929 -2.86038,4.67858 -4.29062,7.01794 0.005,1.66084 0.009,3.32159 0.014,4.98243 2.36766,0.008 4.73517,0.0167 7.10283,0.025 0.54092,1.85035 1.0818,3.70059 1.62271,5.55094 0.96002,0.85202 1.91999,1.70399 2.88002,2.55601 2.72467,-2.46141 5.44917,-4.92268 8.17385,-7.38409 3.49628,-5.17513 6.99235,-10.34995 10.48865,-15.52509 1.45489,-3.95005 2.90968,-7.89986 4.36457,-11.8499 -0.64427,-1.67614 -1.28851,-3.35221 -1.93277,-5.02832 z"
         sodipodi:nodetypes="ccccccccccccc"
         transform="matrix(0.9687704,0,0,0.94235324,4.6345724,7.7860749)" /><path
         id="path6"
         style="color:#000000;fill:#ffffff;fill-opacity:1;stroke:#7733ff;stroke-width:3.05288;stroke-linecap:round;stroke-linejoin:round;stroke-dasharray:none;stroke-opacity:1"
         d="m 154.97753,174.7599 a 3.96875,3.96875 0 0 0 -5.61266,0 l -2.61303,2.61303 -2.61303,-2.61303 a 3.96875,3.96875 0 0 0 -5.61266,0 3.96875,3.96875 0 0 0 0,5.61266 l 2.61303,2.61303 -2.61303,2.61303 a 3.96875,3.96875 0 0 0 0,5.61266 3.96875,3.96875 0 0 0 5.61266,0 l 2.61303,-2.61303 2.61303,2.61303 a 3.96875,3.96875 0 0 0 5.61266,0 3.96875,3.96875 0 0 0 0,-5.61266 l -2.61303,-2.61303 2.61303,-2.61303 a 3.96875,3.96875 0 0 0 0,-5.61266 z"
         inkscape:label="path6" /></g></g></svg>
